<?xml version="1.0" encoding="utf-8"?>
<!-- Generator: Adobe Illustrator 12.0.0, SVG Export Plug-In . SVG Version: 6.00 Build 51448)  -->
<!DOCTYPE svg PUBLIC "-//W3C//DTD SVG 1.1//EN" "http://www.w3.org/Graphics/SVG/1.1/DTD/svg11.dtd" [
	<!ENTITY ns_svg "http://www.w3.org/2000/svg">
	<!ENTITY ns_xlink "http://www.w3.org/1999/xlink">
]>
<svg  version="1.1" id="Layer_1" xmlns="&ns_svg;" xmlns:xlink="&ns_xlink;" width="800" height="600" viewBox="0 0 800 600"
	 overflow="visible" enable-background="new 0 0 800 600" xml:space="preserve">
<polygon fill="#333466" points="196.712,20 116.712,20 136.44,0 216.44,0 "/>
<polygon fill="#CC3232" points="313.424,20 233.424,20 253.152,0 333.152,0 "/>
<polygon fill="#333466" points="430.137,20 350.137,20 369.865,0 449.864,0 "/>
<polygon fill="#CC3232" points="546.848,20 466.849,20 486.577,0 566.576,0 "/>
<polygon fill="#333466" points="663.56,20 583.561,20 603.289,0 683.288,0 "/>
<polygon fill="#CC3232" points="196.711,600 116.711,600 136.439,580 216.439,580 "/>
<polygon fill="#333466" points="313.423,600 233.424,600 253.151,580 333.151,580 "/>
<polygon fill="#CC3232" points="430.136,600 350.136,600 369.864,580 449.863,580 "/>
<polygon fill="#333466" points="546.847,600 466.849,600 486.577,580 566.575,580 "/>
<polygon fill="#CC3232" points="663.559,600 583.56,600 603.288,580 683.287,580 "/>
<polyline fill="#CC3232" points="0,19.729 0,99.729 20,80 20,20.033 20,20 80,20 99.728,0 0.103,0 0.001,19.729 "/>
<polyline fill="#333466" points="800,580.271 800,500.271 780,520 780,579.967 780,580 720,580 700.271,600 799.897,600 
	799.999,580.271 "/>
<path fill="#FFFFFF" stroke="#000000" d="M406.311,282.145"/>
<polyline fill="#CC3232" points="800,0 800,20 800,79.998 780,99.726 780,19.729 779.939,20 700.273,20 720.002,0 800,0 799.938,20 
	"/>
<polyline fill="#333466" points="0,600 0,580 0,520.002 20,500.273 20,580.271 20.061,580 99.727,580 79.999,600 0,600 0.062,580 
	"/>
<polygon fill="#CC3232" points="0,419.946 0,499.946 20,480.218 20,400.219 "/>
<polygon fill="#333466" points="0,319.892 0,399.892 20,380.163 20,300.164 "/>
<polygon fill="#CC3232" points="0,219.837 0,299.837 20,280.108 20,200.109 "/>
<polygon fill="#333466" points="0,119.783 0,199.783 20,180.054 20,100.055 "/>
<polygon fill="#CC3232" points="800,480.218 800,400.218 780,419.946 780,499.945 "/>
<polygon fill="#333466" points="780,319.891 780,399.891 800,380.162 800,300.163 "/>
<polygon fill="#CC3232" points="780,219.836 780,299.836 800,280.107 800,200.108 "/>
<polygon fill="#333466" points="780,119.781 780,199.781 800,180.053 800,100.054 "/>
</svg>
