<?xml version="1.0" ?><svg height="24px" version="1.1" viewBox="0 0 24 24" width="24px" xmlns="http://www.w3.org/2000/svg" xmlns:xlink="http://www.w3.org/1999/xlink"><title/><desc/><defs/><g fill="none" fill-rule="evenodd" id="post" stroke="none" stroke-width="1"><g fill="#000000" id="frame-horz"><path d="M1.59768432,6.79387714 C1.52261483,6.53038319 1.48554604,6.10762538 1.50523118,5.63488542 C1.52723131,5.10384768 1.58094198,4.61134812 1.65771487,4.17149715 C1.74298435,3.68279071 1.86648856,3.668832 1.94553732,4.14919356 C2.0289861,4.65732081 2.10894521,5.19503445 2.08451748,5.7721966 C2.08271854,5.92883442 2.07725946,6.07295965 2.06847665,6.20369703 C2.08003195,6.26321876 2.09056421,6.33045003 2.10008447,6.40571797 C2.15910552,6.8701484 2.17867806,7.34747546 2.13786401,7.87927182 C2.20204372,9.40456391 2.18110566,10.9741597 2.16714695,12.5211485 C2.15030547,14.387822 2.26880274,16.2243022 2.20052647,18.0988654 C2.18869191,18.4232536 2.18611258,18.7488556 2.18869191,19.0752162 C2.19096779,19.2383206 2.19324366,19.4017285 2.19551954,19.5654399 C2.19703679,19.6728612 2.19870576,19.6623922 2.20052647,19.6947096 L2.20629202,19.7635928 L2.28579595,19.7572204 L2.32236169,19.7541859 L2.44616935,19.7513031 L2.98024158,19.7423513 C3.33618859,19.7385582 3.69274249,19.7400754 4.0492964,19.7523652 C4.31299457,19.7613169 4.58837556,19.7537307 4.84494265,19.7692066 C6.65031921,19.8789039 8.47648211,19.8367243 10.2947553,19.8171518 C10.9043866,19.8106276 11.5096179,19.8157862 12.1165182,19.8132069 C13.2546079,19.8086552 14.3893597,19.8129035 15.5257804,19.757979 C16.9142165,19.6907648 18.3257148,19.7790688 19.7325096,19.7522134 C20.3052717,19.7429582 20.8786408,19.7340064 21.4521615,19.7247512 L22.3125944,19.7136753 L22.7428867,19.7083649 C22.7676178,19.7080614 22.7609419,19.7079097 22.7657971,19.7076063 L22.7739903,19.7069994 L22.789618,19.7056338 L22.8192044,19.7030545 L22.8151078,19.655868 L22.8140457,19.6450955 L22.8131354,19.570902 L22.8108595,19.4087079 L22.8019077,18.7609936 C22.7947766,18.3290323 22.7877973,17.8975262 22.7806662,17.4663236 C22.7718661,17.0100863 22.8134388,16.8315059 22.9084187,16.7189259 C23.1815238,16.3954481 23.3563111,16.8377266 23.343111,17.9287816 L23.3334006,18.9934364 C23.3321868,19.4005147 23.3311247,19.8071379 23.3299109,20.2137611 L21.8446743,20.2163404 L20.5169282,20.224837 C19.6319159,20.234244 18.747207,20.2434992 17.8626499,20.2529062 C16.0933839,20.2739959 14.3242696,20.2969064 12.5536381,20.3019134 C11.1858366,20.3057065 9.81879378,20.331348 8.45114403,20.3462171 C7.809347,20.3531964 7.15571541,20.3433343 6.53151849,20.3249756 C5.76136205,20.3022168 4.99181251,20.2887133 4.22211125,20.2808236 L3.06778694,20.2730856 L1.69877167,20.2709614 C1.69740614,19.2396862 1.69604062,18.2073488 1.69452337,17.1731908 C1.69315784,14.6703341 1.61775048,12.1700567 1.67100598,9.66325515 C1.68177846,9.15118305 1.63459197,8.61346941 1.60242625,8.09790764 C1.5746278,7.65450978 1.57338831,7.22278961 1.59768432,6.79387714 L1.59768432,6.79387714 Z M1.9129316,3.71975094 C1.90822812,3.59032946 2.19058847,3.55603959 2.51482494,3.57090865 C3.99793746,3.63827458 5.46071883,3.5325222 6.92137604,3.53859121 C9.58339234,3.54966714 12.2384293,3.4665218 14.8984731,3.515529 C15.8827136,3.53388773 16.8684714,3.55224646 17.8508912,3.57075692 C18.7400001,3.59215016 19.6272883,3.59154326 20.5139696,3.58319838 C21.4834927,3.57136382 22.452409,3.55968099 23.4217805,3.54814989 L23.4283046,4.51008681 C23.4331599,5.27356734 23.4316426,6.03006852 23.404939,6.78763178 C23.3838492,7.39134582 23.3782354,7.99566676 23.4255736,8.592098 C23.4398358,8.7712853 23.4515186,8.96412786 23.4498496,9.14892899 C23.4431737,9.86340233 23.3136005,10.4043022 23.1624823,10.3759296 C23.0159159,10.3483156 22.8473494,9.62792502 22.8720806,9.01404541 C22.9295844,7.58327803 22.8984807,6.1376416 22.9527983,4.69777072 C22.9600811,4.46456929 22.9672122,4.23060924 22.974495,3.99528366 L22.8393079,3.99300778 L22.6482861,3.99209743 C22.4731954,3.99270433 22.2978012,3.99331123 22.1222553,3.99391813 C21.7711635,3.99846988 21.419313,4.00302164 21.0671592,4.00757339 C20.3631549,4.01955967 19.657785,4.034277 18.9548428,4.03746323 C17.6207243,4.0433805 16.2896403,4.0373115 14.9772184,3.97571112 C13.8735703,3.92397288 12.7767498,3.96554554 11.6787155,3.96660762 C10.0039742,3.96842832 8.33150881,3.96994557 6.65919513,3.94081436 C5.85990748,3.92685565 5.08823379,3.89833134 4.31261525,3.83172404 C3.54534159,3.76602708 2.71039855,3.75449598 1.9129316,3.71975094 Z M22.7634302,13.5256359 C22.7693475,13.1010094 22.7581199,12.6674798 22.7931683,12.2658529 C22.8508239,11.6038115 22.9382175,11.3050644 23.0608114,11.3535366 C23.1790052,11.4002777 23.2333228,11.8214418 23.2615436,12.4849671 C23.2993232,13.3661227 23.2835438,14.1953439 23.2067709,14.9590285 C23.1451705,15.5728451 23.0495837,15.9804074 22.9332106,15.8018516 C22.8162306,15.6225538 22.764644,15.0018127 22.7603957,14.2596437 C22.7591819,14.0153042 22.7623682,13.7702227 22.7634302,13.5256359 Z" id="Combined-Shape"/></g></g></svg>