<?xml version="1.0" ?><svg height="144" version="1.1" viewBox="0 0 24 24" width="144" xmlns="http://www.w3.org/2000/svg" xmlns:xlink="http://www.w3.org/1999/xlink"><title/><desc/><defs/><g fill="none" fill-rule="evenodd" id="Page-2" stroke="none" stroke-width="1"><text fill="#FF0000" font-family="DeadLetterOfficeTwentyNine, Dead Letter Office" font-size="20" font-weight="normal" id="ABCDEFGHIJKLMNOPQRST" letter-spacing="20" line-spacing="50"><tspan x="-805" y="-125"/><tspan font-family="LucidaGrande, Lucida Grande" x="-805" y="-75"/><tspan x="0.9375" y="-75"/><tspan font-family="LucidaGrande, Lucida Grande" x="-805" y="-25"/></text><g fill="#000000" id="post_mark"><path d="M17.7738107,17.4431415 C15.1223325,17.7388488 12.4298107,16.2739707 11.2694629,13.9206049 C11.1411151,13.6600683 11.1950281,13.5200683 11.4235499,13.3725561 C12.0277238,12.9826049 12.1887672,13.0037756 12.6649412,13.6276293 C12.5678977,13.0188 12.5922455,12.9931902 13.1974629,13.0679707 C13.4527672,13.0997268 13.817289,13.1523122 13.865289,12.9139707 C13.9115499,12.6821171 13.5139846,12.677678 13.3063325,12.5841171 C13.2113759,12.5410927 13.1025064,12.5148 12.9981585,12.5062634 C12.1727672,12.4393366 12.3122455,12.3184585 12.1915499,11.6570439 C12.1463325,11.4084585 12.095202,11.1414341 12.1205933,11.0591415 C12.1498107,10.9655805 12.239202,10.8201171 12.1651151,10.5821171 C12.041289,10.1832878 12.2371151,9.7708 12.6259846,9.62123902 C12.7543325,9.57172683 12.945289,9.48362927 12.7275499,9.37845854 C12.2099846,9.12816585 12.5035499,8.84816585 12.6378107,8.52172683 C12.7265064,8.29123902 13.3407672,7.41914146 13.3755499,7.35016585 L13.4158977,7.32250732 C13.8889412,6.79562927 14.4468542,6.36845854 15.1011151,6.09221463 C17.0955499,5.25016585 18.9445933,5.51582439 20.6318977,6.85401951 C20.753289,6.95065366 20.8826803,7.06675122 20.945289,7.20197073 C21.1505064,7.64245854 21.2545064,7.53011707 21.5498107,7.99382439 C22.0823325,8.72216585 22.3313759,9.53519024 22.3696368,10.4188976 C22.4082455,11.3155805 22.1981585,12.1528488 21.7835499,12.9498244 C21.3745064,13.737239 20.7779846,14.3785073 20.1498107,15.0030439 C20.503202,14.889678 20.7609412,14.6486049 21.0099846,14.409239 C22.7835499,12.7026049 23.0903325,9.85411707 21.7529412,7.80772683 C20.8409412,6.41182439 19.5209412,5.6472878 17.8854629,5.45162927 C16.2235499,5.25289756 14.7546803,5.74733659 13.5438977,6.9110439 C13.4200716,7.03021463 13.3035499,7.16338537 13.1063325,7.1490439 C12.7685933,7.12377561 12.7087672,7.32626341 12.711202,7.59533659 C12.7157238,8.11845854 12.3341585,8.50499512 12.1915499,8.97723902 C12.1724194,9.04109268 12.1049412,9.08514146 12.0336368,9.07523902 C11.6760716,9.02675122 11.3174629,9.03119024 10.9581585,9.04348293 C10.7918977,9.0492878 10.7998977,8.92806829 10.8388542,8.82323902 C10.9341585,8.56577561 11.0364194,8.31070244 11.143202,8.05733659 C11.1943325,7.93475122 11.2986803,7.88182439 11.4329412,7.89753171 C11.5118977,7.90640976 11.5901585,7.92416585 11.6687672,7.9368 C11.8993759,7.97367805 12.2131151,7.97914146 12.2715499,7.78006829 C12.3358977,7.55948293 12.007202,7.54548293 11.8360716,7.49187317 C11.5560716,7.40445854 11.5484194,7.28665366 11.7011151,7.07084878 C12.8440716,5.4588 14.3943325,4.50201951 16.3870281,4.2650439 C20.1105064,3.82182439 23.3143325,6.64948293 23.6691151,10.1880683 C24.0305064,13.7891415 21.4346803,17.0347512 17.7738107,17.4431415 M11.0642455,12.8934829 C10.9804194,12.9573366 10.8798977,12.9928488 10.8430281,12.8648 C10.751202,12.5421171 10.5282455,12.197239 10.6906803,11.8858244 C10.8718977,11.5368488 11.2729412,11.4111902 11.6635499,11.3466537 C11.8291151,11.3189951 11.9108542,11.4241659 11.9376368,11.5665561 C11.9786803,11.7847512 12.0075499,12.0043122 12.0416368,12.2235317 C12.0621585,12.356361 12.0211151,12.4570927 11.8798977,12.4946537 C11.5800716,12.5731902 11.3091151,12.7070439 11.0642455,12.8934829 M10.5501585,10.8955805 C10.5449412,10.7531902 10.5491151,10.6101171 10.5491151,10.4404098 C10.6016368,10.2263122 10.4478977,9.9145561 10.745289,9.75884878 C11.0329412,9.60860488 11.3480716,9.58299512 11.6659846,9.60143415 C11.7244194,9.51572683 11.8228542,9.46860488 11.9838977,9.4843122 C11.9863325,9.55397073 11.9741585,9.6103122 11.9567672,9.66084878 C11.9849412,9.69362927 11.9950281,9.74040976 11.9894629,9.78992195 C11.9588542,10.060361 11.9247672,10.3304585 11.8865064,10.5998732 C11.8767672,10.6674829 11.8259846,10.7248488 11.7567672,10.731678 C11.3838977,10.7678732 11.0339846,10.8651902 10.7028542,11.0444585 C10.5720716,11.1151415 10.5536368,10.9874341 10.5501585,10.8955805 M23.8096368,9.60758049 C23.4868542,7.95421463 22.6854629,6.57162927 21.3571151,5.50319024 C19.8085933,4.25787317 18.023202,3.78597073 16.0541585,4.08884878 C14.1091151,4.38797073 12.6075499,5.40621463 11.4962455,6.98821463 C11.3598977,7.18250732 11.223202,7.32865366 10.9550281,7.3132878 C10.1814629,7.26958049 9.56754985,7.59636098 9.04094116,8.12562927 C8.54807159,8.62040976 8.05520203,9.11587317 7.54563681,9.59426341 C6.75641942,10.335239 5.84372377,10.6394829 4.76302811,10.3051902 C4.42041942,10.1989951 4.07154985,10.1132878 3.72581072,10.0166537 C2.97972377,9.80836098 2.23050637,9.79299512 1.4802455,9.99070244 C1.0388542,10.1071415 0.626332461,10.2853854 0.280941157,10.5882634 C0.111202026,10.7371415 0.115375939,10.9198244 0.242332461,11.0792878 C0.2468542,11.0857756 0.252071592,11.0905561 0.256941157,11.095678 C0.312593331,10.993922 0.414158548,10.9368976 0.591202026,10.9539707 C0.592593331,10.9980195 0.588071592,11.0362634 0.580419418,11.0714341 C0.595723766,11.0605073 0.611028113,11.049239 0.625636809,11.0386537 C1.29033246,10.5588976 2.05868029,10.4533854 2.8534629,10.4117268 C3.59468029,10.3728 4.25972377,10.6644098 4.9508542,10.8423122 C5.86494116,11.077239 6.68476724,10.9205073 7.43328898,10.3506049 C7.98320203,9.93094634 8.4148542,9.39143415 8.9362455,8.94787317 C9.4228542,8.53333659 9.89415855,8.07509268 10.5633759,7.92792195 C10.5724194,7.92587317 10.5811151,7.92382439 10.5905064,7.92211707 C10.6458107,7.81865366 10.7477238,7.7612878 10.9258107,7.77836098 C10.9282455,7.86816585 10.9084194,7.93475122 10.8826803,7.9965561 C10.8896368,8.04401951 10.8778107,8.1112878 10.8430281,8.20484878 C10.6451151,8.74333659 10.4485933,9.23162927 9.90076724,9.58777561 C9.11537594,10.097922 8.60407159,10.928361 7.85241942,11.4996293 C7.1254629,12.0517756 6.34389768,12.3075317 5.42911507,12.043922 C4.95641942,11.907678 4.48163681,11.7768976 4.00094116,11.6737756 C2.83920203,11.4258732 1.75294116,11.5781659 0.787375939,12.3068488 C0.601288983,12.4475317 0.536593331,12.6322634 0.671897679,12.8190439 C0.819028113,13.0222146 0.983897679,12.8678732 1.11711507,12.7746537 C1.77207159,12.3181171 2.51537594,12.1620683 3.30007159,12.1197268 C4.06702811,12.0784098 4.76337594,12.3631902 5.47815855,12.5571415 C6.39433246,12.8057268 7.21241942,12.6411415 7.95537594,12.0650927 C8.47015855,11.6662634 8.88720203,11.1697756 9.36650637,10.7368 C9.65068029,10.4807024 9.97276724,10.2655805 10.3035499,10.0122146 C10.3035499,10.4318732 10.3021585,10.7822146 10.3042455,11.133239 C10.305289,11.2862146 10.2496368,11.4094829 10.1390281,11.5173854 C9.5908542,12.0507512 9.06215855,12.6049463 8.49415855,13.1174829 C7.75711507,13.7823122 6.89241942,14.0175805 5.90702811,13.7450927 C5.45902811,13.6211415 5.01102811,13.4930927 4.55641942,13.3947512 C3.38250637,13.1400195 2.28233246,13.289239 1.29763681,14.0134829 C1.07711507,14.175678 0.959897679,14.4013854 1.13937594,14.6161659 C1.28894116,14.7947512 1.48233246,14.5946537 1.61415855,14.5028 C2.31781072,14.0121171 3.11050637,13.8615317 3.95363681,13.8386537 C4.63850637,13.8208976 5.2628542,14.0537756 5.8962455,14.241922 C6.86772377,14.5304585 7.72894116,14.3634829 8.52268029,13.751239 C8.99676724,13.3858732 9.39294116,12.9447024 9.82494116,12.5387024 C9.98181072,12.3911902 10.0826803,12.0917268 10.3369412,12.1661659 C10.5553759,12.229678 10.495202,12.5257268 10.5567672,12.7169463 C10.6207672,12.9173854 10.7550281,13.1164585 10.5477238,13.3353366 C10.0218107,13.8902146 9.50320203,14.4491902 8.90528898,14.9340683 C8.18354985,15.5193366 7.37554985,15.6945073 6.47537594,15.4684585 C6.12754985,15.3810439 5.78389768,15.2765561 5.43781072,15.1819707 C4.45972377,14.9135805 3.49241942,14.9163122 2.54354985,15.3042146 C2.19572377,15.4462634 1.88163681,15.6408976 1.62111507,15.9099707 C1.4708542,16.0646537 1.47328898,16.2620195 1.58528898,16.4170439 C1.72963681,16.6161171 1.84894116,16.3938244 1.93763681,16.3309951 C2.77276724,15.7378732 3.70702811,15.5145561 4.72407159,15.5582634 C5.3734629,15.5866049 5.97137594,15.8208488 6.58459333,15.9878244 C7.44511507,16.2227512 8.2134629,16.0687512 8.92511507,15.5565561 C9.50876724,15.1358732 9.97276724,14.5929463 10.4847672,14.0991902 C10.8541585,13.742361 10.9216368,13.7546537 11.1755499,14.1958244 C11.9745064,15.5842146 13.1059846,16.607239 14.6155499,17.223922 C15.111202,17.4264098 15.6402455,17.5001659 16.1418107,17.6732878 L18.0590281,17.6732878 C18.8298107,17.4738732 19.6037238,17.2908488 20.3073759,16.8968 C22.105289,15.8908488 23.2426803,14.4034341 23.7345064,12.4342146 C23.7814629,12.2447024 23.8385064,12.057922 23.8910281,11.8697756 L23.8910281,9.90909268 C23.8635499,9.80870244 23.8294629,9.70933659 23.8096368,9.60758049" id="Fill-1"/></g></g></svg>