<?xml version="1.0" ?><svg height="24px" version="1.1" viewBox="0 0 24 24" width="24px" xmlns="http://www.w3.org/2000/svg" xmlns:xlink="http://www.w3.org/1999/xlink"><title/><desc/><defs/><g fill="none" fill-rule="evenodd" id="post" stroke="none" stroke-width="1"><g fill="#000000" id="frame-"><path d="M10.4300808,22.2613439 C11.9553729,22.1971642 13.5249687,22.2181023 15.0719574,22.232061 C16.9386309,22.2489024 18.7751111,22.1304052 20.6496743,22.1986814 C20.9740625,22.210516 21.2996645,22.2130953 21.6260251,22.210516 C21.7891296,22.2082401 21.9525375,22.2059642 22.1162488,22.2036884 C22.2236702,22.2021711 22.2132011,22.2005021 22.2455186,22.1986814 L22.3144018,22.1929159 L22.3080293,22.113412 L22.3049948,22.0768462 L22.302112,21.9530386 L22.2931603,21.4189663 C22.2893671,21.0630193 22.2908844,20.7064654 22.3031741,20.3499115 C22.3121259,20.0862133 22.3045396,19.8108323 22.3200156,19.5542653 C22.4297128,17.7488887 22.3875333,15.9227258 22.3679607,14.1044526 C22.3614365,13.4948213 22.3665952,12.88959 22.3640159,12.2826897 C22.3594641,11.1446 22.3637124,10.0098482 22.3087879,8.87342748 C22.2415737,7.4849914 22.3298777,6.07349311 22.3030224,4.66669829 C22.2937672,4.09393617 22.2848154,3.52056714 22.2755602,2.94704639 L22.2644842,2.08661354 L22.2591738,1.65632125 C22.2588704,1.63159006 22.2587187,1.63826597 22.2584152,1.63341076 L22.2578083,1.62521761 L22.2564428,1.60958993 L22.2538635,1.58000354 L22.206677,1.58410012 L22.1959045,1.58516219 L22.1217109,1.58607254 L21.9595168,1.58834842 L21.3118025,1.5973002 C20.8798413,1.60443128 20.4483352,1.61141063 20.0171325,1.61854171 C19.5608953,1.62734176 19.3823149,1.58576909 19.2697349,1.4907892 C18.946257,1.21768408 19.3885356,1.0428968 20.4795905,1.05609689 L21.5442453,1.06580729 C21.9513237,1.06702109 22.3579469,1.06808317 22.76457,1.06929697 L22.7671494,2.55453364 L22.775646,3.8822797 C22.7850529,4.76729201 22.7943082,5.65200087 22.8037151,6.53655801 C22.8248049,8.30582401 22.8477154,10.0749383 22.8527223,11.8455698 C22.8565154,13.2133713 22.882157,14.5804141 22.897026,15.9480639 C22.9040054,16.5898609 22.8941432,17.2434925 22.8757845,17.8676894 C22.8530258,18.6378459 22.8395222,19.4073954 22.8316325,20.1770967 L22.8238945,21.331421 L22.8217704,22.7004362 C21.7904951,22.7018018 20.7581578,22.7031673 19.7239997,22.7046845 C17.221143,22.7060501 14.7208656,22.7814574 12.2140641,22.7282019 C11.701992,22.7174294 11.1642784,22.7646159 10.6487166,22.7967817 C10.1114581,22.8304646 9.5913446,22.8251542 9.07259659,22.7826712 C8.67401485,22.7498986 8.42897886,22.6832913 8.3934752,22.5670699 C8.35554393,22.4426554 8.52228978,22.3540479 8.95652692,22.2991234 C9.42095735,22.2401024 9.89828441,22.2205299 10.4300808,22.2613439 Z M1.27055988,22.4862763 C1.1411384,22.4909798 1.10684854,22.2086194 1.12171759,21.884383 C1.18908352,20.4012704 1.08333115,18.9384891 1.08940015,17.4778319 C1.10047608,14.8158156 1.01733075,12.1607786 1.06633794,9.50073477 C1.08469668,8.51649426 1.10305541,7.53073651 1.12156587,6.5483167 C1.1429591,5.65920781 1.1423522,4.77191962 1.13400732,3.88523834 C1.12217277,2.91571516 1.11048994,1.94679889 1.09895883,0.977427438 L2.06089575,0.97090326 C2.82437629,0.966048058 3.58087747,0.967565309 4.33844073,0.994268921 C4.94215477,1.0153587 5.54647571,1.02097253 6.14290694,0.973634312 C6.32209425,0.959372155 6.5149368,0.947689325 6.69973794,0.949358301 C7.41421127,0.956034204 7.95511114,1.08560741 7.92673855,1.23672558 C7.89912459,1.38329199 7.17873397,1.55185854 6.56485435,1.52712735 C5.13408698,1.46962355 3.68845054,1.50072719 2.24857966,1.44640962 C2.01537823,1.43912682 1.78141818,1.43199574 1.5460926,1.42471293 L1.54381673,1.55989997 L1.54290638,1.75092183 C1.54351328,1.92601255 1.54412018,2.10140673 1.54472708,2.27695263 C1.54927883,2.62804444 1.55383058,2.97989487 1.55838233,3.33204874 C1.57036861,4.03605305 1.58508595,4.74142289 1.58827217,5.44436512 C1.59418945,6.77848363 1.58812045,8.10956764 1.52652007,9.42198946 C1.47478182,10.5256376 1.51635449,11.6224581 1.51741657,12.7204924 C1.51923727,14.3952337 1.52075452,16.0676991 1.49162331,17.7400128 C1.4776646,18.5393004 1.44914029,19.3109741 1.38253298,20.0865927 C1.31683603,20.8538663 1.30530492,21.6888094 1.27055988,22.4862763 Z M3.32300555,22.3146904 C4.23456975,22.3251595 4.72236583,22.4595879 4.61388241,22.6516718 C4.51829562,22.8208453 3.91078845,22.92417 3.18569436,22.8939767 C2.65465663,22.8719766 2.16215706,22.8182659 1.7223061,22.741493 C1.23359966,22.6562236 1.21964095,22.5327193 1.70000251,22.4536706 C2.20812976,22.3702218 2.74584339,22.2902627 3.32300555,22.3146904 Z M13.9725121,1.63577767 C13.7120002,1.6298604 13.4460261,1.64108805 13.1996246,1.60603956 C12.7934566,1.54838404 12.6101727,1.4609904 12.6399108,1.33839654 C12.6685869,1.22020272 12.9269747,1.16588514 13.334053,1.13766428 C13.8746494,1.09988474 14.3833836,1.11566415 14.8519106,1.19243703 C15.2284922,1.25403741 15.4785351,1.3496242 15.3689896,1.46599732 C15.2589889,1.58297735 14.878159,1.63456387 14.4228321,1.63881218 C14.2729277,1.64002598 14.1225682,1.63683975 13.9725121,1.63577767 Z" id="Combined-Shape"/></g></g></svg>