<?xml version="1.0" ?><svg height="24px" version="1.1" viewBox="0 0 24 24" width="24px" xmlns="http://www.w3.org/2000/svg" xmlns:xlink="http://www.w3.org/1999/xlink"><title/><desc/><defs/><g fill="none" fill-rule="evenodd" id="Page-2" stroke="none" stroke-width="1"><g fill="#000000" id="stamp_frame"><path d="M20.1538624,5.07470022 C20.1538624,5.24437984 20.1442486,5.41793786 20.1538624,5.58761748 C20.1644375,5.76020589 20.1269438,5.94249028 20.1778968,6.11992669 C20.152901,6.22270406 20.1634761,6.33129901 20.1625148,6.41274523 C20.1615534,6.49806984 20.1615534,6.58339445 20.1778968,6.67938464 C20.168283,6.69005021 20.1663603,6.70459418 20.1625148,6.73271252 C20.1567465,6.7841012 20.160592,6.91305771 20.1855878,6.99256474 C20.168283,7.01874388 20.1577079,6.95668962 20.1538624,6.99256474 C20.1567465,7.13897401 20.1480941,7.33386317 20.1778968,7.45215411 C20.1673216,7.45021491 20.1750126,7.43179256 20.1625148,7.43179256 C20.1932788,7.48318124 20.175974,7.55008349 20.1778968,7.61116815 C20.1778968,7.61892494 20.1596306,7.62474252 20.1625148,7.63152971 C20.1644375,7.6354081 20.1855878,7.6373473 20.1855878,7.63831689 C20.1923174,7.65964805 20.1817423,7.72170231 20.1702058,7.75079024 C20.1730899,7.73624627 20.1692444,7.7255807 20.1625148,7.71879351 C20.1567465,7.84193244 20.1577079,8.03197361 20.1702058,8.18420047 L20.1702058,8.13765978 C20.1702058,8.10857184 20.183665,8.13669018 20.1778968,8.15026455 C20.1769354,8.16771731 20.1769354,8.18323088 20.1855878,8.19098766 C20.1817423,8.20262283 20.1653989,8.20456203 20.1625148,8.23752835 C20.160592,8.2617683 20.1923174,8.29667382 20.1702058,8.29764342 C20.1750126,8.27340347 20.1567465,8.27340347 20.1625148,8.29764342 C20.1673216,8.37618084 20.1519396,8.51871173 20.1702058,8.5768876 L20.1702058,8.54973886 C20.1769354,8.51386374 20.1807809,8.57010041 20.1778968,8.58367478 C20.1807809,8.63118508 20.1702058,8.58561398 20.1625148,8.59724915 C20.1721285,8.64863784 20.160592,8.66124261 20.1702058,8.7106921 C20.1750126,8.7533544 20.152901,8.69711773 20.1538624,8.73008405 C20.1509782,8.75723279 20.1817423,8.72426647 20.1625148,8.75044561 C20.1567465,8.79116872 20.1615534,8.84643579 20.1625148,8.89685488 C20.1634761,8.94242598 20.14521,9.00157145 20.1778968,8.98993627 C20.1750126,9.01320662 20.160592,9.01514582 20.1538624,9.05005134 C20.1480941,9.08980485 20.160592,9.13537595 20.1625148,9.17028147 C20.1625148,9.16737268 20.1846264,9.17222067 20.1778968,9.17609906 C20.1509782,9.19452142 20.168283,9.16349429 20.1625148,9.19646061 C20.1596306,9.21197418 20.1615534,9.23039654 20.1538624,9.24300131 C20.1730899,9.2478493 20.2076994,9.27015005 20.2105836,9.32250833 C20.1634761,9.32832592 20.2182746,9.289542 20.1778968,9.289542 C20.1259825,9.29826838 20.2009698,9.39231937 20.1538624,9.37583621 C20.1538624,9.63665803 20.1577079,10.0089836 20.1538624,10.2348999 C20.1538624,10.3231333 20.1634761,10.4356066 20.1625148,10.5345056 C20.1615534,10.7100028 20.1336735,10.9204056 20.1702058,11.1143251 C20.1413645,11.1569874 20.1538624,11.2209809 20.1538624,11.2733392 L20.1538624,11.459502 C20.1557851,11.5603401 20.1471327,11.6582695 20.1538624,11.7397157 C20.1596306,11.7911044 20.1769354,11.8376451 20.1778968,11.886125 C20.1788582,11.9249089 20.1673216,11.9636928 20.1625148,12.0053855 C20.1519396,12.1004061 20.1673216,12.2002747 20.1625148,12.3059609 C20.1567465,12.4523701 20.1509782,12.6123538 20.1538624,12.7384015 C20.1557851,12.7859118 20.1519396,12.8440877 20.1855878,12.8848108 C20.1413645,12.8712364 20.1644375,12.946865 20.1625148,12.9914665 C20.1615534,13.0127977 20.1538624,13.0350984 20.1538624,13.0573992 C20.1548237,13.0806695 20.1509782,13.1155751 20.1778968,13.1116967 C20.1500169,13.134967 20.152901,13.1785989 20.1538624,13.2115652 C20.1625148,13.4326335 20.1625148,13.8505302 20.1625148,14.1569231 C20.1625148,15.9060776 20.1702058,17.5175492 20.1702058,19.1833183 C20.1702058,19.2783389 20.1673216,19.3733595 20.1702058,19.4703193 C20.1711671,19.478076 20.1673216,19.4994072 20.1702058,19.5100728 C20.1788582,19.5372215 20.175974,19.5129816 20.1702058,19.5498263 C20.1625148,19.5953974 20.1702058,19.666178 20.1702058,19.7224147 C20.1702058,20.473853 20.1644375,21.2243217 20.1778968,21.9466721 C19.5770366,21.9515201 19.0203997,21.9534593 18.2984061,21.9534593 C17.6052538,21.9534593 17.0092005,21.9602465 16.2775931,21.9602465 C15.5729043,21.9602465 14.999924,21.9621857 14.4529009,21.9602465 C13.8741523,21.9573377 13.0108364,21.9718817 12.4715043,21.9660641 C12.2321216,21.9631553 11.8696827,21.9699425 11.5043597,21.9728513 C11.18326,21.9757601 10.884272,21.9786688 10.5843226,21.9796384 C9.89982265,21.9815776 9.19801795,21.9747905 8.48275397,21.9796384 C8.18761145,21.9815776 7.86458901,21.9825472 7.51560941,21.9864256 C6.7042078,21.995152 5.62554358,21.9864256 4.58245029,22 C4.58437304,21.1671155 4.5737979,20.4951842 4.5737979,19.5566135 C4.5737979,19.140656 4.56899102,18.7227593 4.56610689,18.3514034 C4.5574545,17.059899 4.56610689,15.6830701 4.55072487,14.5961509 C4.5372656,13.7176953 4.54784074,12.9216555 4.54303386,11.9995679 C4.54111111,11.6563303 4.53438147,11.3383022 4.53438147,10.8874392 C4.53438147,10.454029 4.54014973,9.98862204 4.53438147,9.55618141 C4.52669046,8.8415878 4.52669046,7.73333748 4.52669046,7.07207176 C4.52669046,6.82579391 4.51803807,6.36620454 4.51803807,5.90661516 C4.51899945,5.45866096 4.51130844,5.03106832 4.51130844,4.66262114 C4.51130844,3.98390266 4.52284496,3.30518418 4.50361743,2.73796944 C4.49881055,2.62743529 4.50361743,2.51399235 4.50361743,2.40539739 C4.50265605,2.29971122 4.49015816,2.19499466 4.51803807,2.09221729 C4.54784074,2.07185573 4.6305191,2.10676126 4.62186672,2.07185573 C4.81798748,2.09900447 5.01795376,2.07864292 5.22464966,2.07864292 C5.87838555,2.07864292 6.58115163,2.07767332 7.11183136,2.07864292 C7.80306092,2.07961252 8.8673045,2.07573412 9.65659445,2.06506855 C10.3507081,2.05634217 11.0034827,2.05828136 11.6552958,2.05828136 C12.7387669,2.05828136 13.7462893,2.0417982 14.8259149,2.04470699 C14.8461038,2.039859 14.8297604,2.00786228 14.8182239,2.00495348 C14.8461038,1.98265273 14.8422583,2.0427678 14.8662927,2.04470699 C15.5257968,2.03113262 16.3102799,2.04567659 17.0620762,2.03888941 C17.0755354,2.03888941 17.0697672,2.02919343 17.0861106,2.03210222 C17.191862,2.04858539 17.3629869,2.03404142 17.4898886,2.03210222 C18.3839686,2.02046705 19.2684348,2.03113262 20.1461714,2.02531504 C20.1442486,2.44709009 20.1586693,2.86304757 20.1538624,3.33039372 C20.1500169,3.8753077 20.1538624,4.33392748 20.1538624,4.78866886 C20.1538624,4.86720629 20.1346348,4.94477411 20.1461714,5.00876757 C20.1596306,5.07857861 20.2240428,5.14257207 20.25,5.20753513 C20.1990471,5.19686955 20.183665,5.11154494 20.1538624,5.07470022 M21.6601,1.773 C21.6691,1.773 21.6751,1.774 21.6821,1.774 L21.6821,0.5 L20.4881,0.5 C20.4881,0.51 20.4891,0.52 20.4891,0.53 C20.4891,0.906 20.1841,1.212 19.8081,1.212 C19.4321,1.212 19.1271,0.906 19.1271,0.53 C19.1271,0.52 19.1291,0.51 19.1291,0.5 L18.3531,0.5 C18.3531,0.51 18.3541,0.52 18.3541,0.53 C18.3541,0.906 18.0491,1.212 17.6731,1.212 C17.2971,1.212 16.9921,0.906 16.9921,0.53 C16.9921,0.52 16.9941,0.51 16.9941,0.5 L16.2181,0.5 C16.2191,0.51 16.2201,0.52 16.2201,0.53 C16.2201,0.906 15.9151,1.212 15.5391,1.212 C15.1631,1.212 14.8581,0.906 14.8581,0.53 C14.8581,0.52 14.8591,0.51 14.8591,0.5 L14.0841,0.5 C14.0851,0.51 14.0861,0.52 14.0861,0.53 C14.0861,0.906 13.7811,1.212 13.4041,1.212 C13.0281,1.212 12.7231,0.906 12.7231,0.53 C12.7231,0.52 12.7241,0.51 12.7241,0.5 L11.9501,0.5 C11.9501,0.51 11.9511,0.52 11.9511,0.53 C11.9511,0.906 11.6461,1.212 11.2701,1.212 C10.8931,1.212 10.5881,0.906 10.5881,0.53 C10.5881,0.52 10.5891,0.51 10.5891,0.5 L9.8151,0.5 C9.8151,0.51 9.8161,0.52 9.8161,0.53 C9.8161,0.906 9.5111,1.212 9.1351,1.212 C8.7591,1.212 8.4541,0.906 8.4541,0.53 C8.4541,0.52 8.4551,0.51 8.4551,0.5 L7.6801,0.5 C7.6801,0.51 7.6821,0.52 7.6821,0.53 C7.6821,0.906 7.3771,1.212 7.0011,1.212 C6.6251,1.212 6.3191,0.906 6.3191,0.53 C6.3191,0.52 6.3211,0.51 6.3211,0.5 L5.5461,0.5 C5.5461,0.51 5.5471,0.52 5.5471,0.53 C5.5471,0.906 5.2421,1.212 4.8661,1.212 C4.4901,1.212 4.1851,0.906 4.1851,0.53 C4.1851,0.52 4.1861,0.51 4.1861,0.5 L3.0001,0.5 L3.0001,1.773 C3.3751,1.775 3.6771,2.079 3.6771,2.454 C3.6771,2.829 3.3751,3.133 3.0001,3.135 L3.0001,3.907 C3.3751,3.91 3.6771,4.214 3.6771,4.589 C3.6771,4.964 3.3751,5.268 3.0001,5.27 L3.0001,6.042 C3.3751,6.044 3.6771,6.348 3.6771,6.723 C3.6771,7.098 3.3751,7.402 3.0001,7.404 L3.0001,8.176 C3.3751,8.179 3.6771,8.483 3.6771,8.858 C3.6771,9.233 3.3751,9.537 3.0001,9.539 L3.0001,10.311 C3.3751,10.313 3.6771,10.617 3.6771,10.992 C3.6771,11.367 3.3751,11.672 3.0001,11.673 L3.0001,12.446 C3.3751,12.447 3.6771,12.752 3.6771,13.127 C3.6771,13.502 3.3751,13.806 3.0001,13.808 L3.0001,14.58 C3.3751,14.582 3.6771,14.886 3.6771,15.261 C3.6771,15.636 3.3751,15.941 3.0001,15.943 L3.0001,16.715 C3.3751,16.717 3.6771,17.021 3.6771,17.396 C3.6771,17.771 3.3751,18.075 3.0001,18.077 L3.0001,18.849 C3.3751,18.851 3.6771,19.155 3.6771,19.53 C3.6771,19.905 3.3751,20.209 3.0001,20.211 L3.0001,20.984 C3.3751,20.986 3.6771,21.29 3.6771,21.665 C3.6771,22.04 3.3751,22.344 3.0001,22.346 L3.0001,23.503 L4.1881,23.503 C4.1861,23.484 4.1851,23.464 4.1851,23.444 C4.1851,23.068 4.4911,22.763 4.8671,22.763 C5.2431,22.763 5.5481,23.068 5.5481,23.444 C5.5481,23.464 5.5461,23.484 5.5461,23.503 L6.3231,23.503 C6.3211,23.484 6.3201,23.464 6.3201,23.444 C6.3201,23.068 6.6261,22.763 7.0021,22.763 C7.3781,22.763 7.6821,23.068 7.6821,23.444 C7.6821,23.464 7.6811,23.484 7.6791,23.503 L8.4581,23.503 C8.4561,23.484 8.4551,23.464 8.4551,23.444 C8.4551,23.068 8.7591,22.763 9.1361,22.763 C9.5121,22.763 9.8171,23.068 9.8171,23.444 C9.8171,23.464 9.8161,23.484 9.8141,23.503 L10.5921,23.503 C10.5901,23.484 10.5891,23.464 10.5891,23.444 C10.5891,23.068 10.8941,22.763 11.2701,22.763 C11.6461,22.763 11.9521,23.068 11.9521,23.444 C11.9521,23.464 11.9501,23.484 11.9491,23.503 L12.7261,23.503 C12.7251,23.484 12.7231,23.464 12.7231,23.444 C12.7231,23.068 13.0291,22.763 13.4051,22.763 C13.7811,22.763 14.0871,23.068 14.0871,23.444 C14.0871,23.464 14.0851,23.484 14.0841,23.503 L14.8611,23.503 C14.8591,23.484 14.8581,23.464 14.8581,23.444 C14.8581,23.068 15.1641,22.763 15.5401,22.763 C15.9161,22.763 16.2211,23.068 16.2211,23.444 C16.2211,23.464 16.2191,23.484 16.2181,23.503 L16.9961,23.503 C16.9941,23.484 16.9931,23.464 16.9931,23.444 C16.9931,23.068 17.2981,22.763 17.6741,22.763 C18.0501,22.763 18.3551,23.068 18.3551,23.444 C18.3551,23.464 18.3541,23.484 18.3521,23.503 L19.1301,23.503 C19.1291,23.484 19.1271,23.464 19.1271,23.444 C19.1271,23.068 19.4321,22.763 19.8081,22.763 C20.1841,22.763 20.4891,23.068 20.4891,23.444 C20.4891,23.464 20.4881,23.484 20.4861,23.503 L21.6821,23.503 L21.6821,22.344 C21.6751,22.345 21.6681,22.346 21.6601,22.346 C21.2841,22.346 20.9791,22.04 20.9791,21.664 C20.9791,21.288 21.2841,20.983 21.6601,20.983 C21.6691,20.983 21.6751,20.984 21.6821,20.985 L21.6821,20.21 C21.6751,20.21 21.6681,20.211 21.6601,20.211 C21.2841,20.211 20.9791,19.906 20.9791,19.53 C20.9791,19.153 21.2841,18.849 21.6601,18.849 C21.6691,18.849 21.6751,18.85 21.6821,18.85 L21.6821,18.075 C21.6751,18.076 21.6681,18.077 21.6601,18.077 C21.2841,18.077 20.9791,17.772 20.9791,17.396 C20.9791,17.019 21.2841,16.714 21.6601,16.714 C21.6691,16.714 21.6751,16.715 21.6821,16.715 L21.6821,15.941 C21.6751,15.942 21.6681,15.943 21.6601,15.943 C21.2841,15.943 20.9791,15.637 20.9791,15.261 C20.9791,14.885 21.2841,14.58 21.6601,14.58 C21.6691,14.58 21.6751,14.581 21.6821,14.581 L21.6821,13.807 C21.6751,13.807 21.6681,13.808 21.6601,13.808 C21.2841,13.808 20.9791,13.503 20.9791,13.127 C20.9791,12.751 21.2841,12.445 21.6601,12.445 C21.6691,12.445 21.6751,12.446 21.6821,12.446 L21.6821,11.672 C21.6751,11.673 21.6681,11.673 21.6601,11.673 C21.2841,11.673 20.9791,11.369 20.9791,10.992 C20.9791,10.616 21.2841,10.311 21.6601,10.311 C21.6691,10.311 21.6751,10.312 21.6821,10.312 L21.6821,9.538 C21.6751,9.538 21.6681,9.539 21.6601,9.539 C21.2841,9.539 20.9791,9.234 20.9791,8.858 C20.9791,8.482 21.2841,8.176 21.6601,8.176 C21.6691,8.176 21.6751,8.177 21.6821,8.178 L21.6821,7.403 C21.6751,7.403 21.6681,7.404 21.6601,7.404 C21.2841,7.404 20.9791,7.1 20.9791,6.723 C20.9791,6.347 21.2841,6.042 21.6601,6.042 C21.6691,6.042 21.6751,6.043 21.6821,6.043 L21.6821,5.269 C21.6751,5.269 21.6681,5.27 21.6601,5.27 C21.2841,5.27 20.9791,4.965 20.9791,4.589 C20.9791,4.213 21.2841,3.907 21.6601,3.907 C21.6691,3.907 21.6751,3.908 21.6821,3.909 L21.6821,3.134 C21.6751,3.134 21.6681,3.135 21.6601,3.135 C21.2841,3.135 20.9791,2.83 20.9791,2.454 C20.9791,2.078 21.2841,1.773 21.6601,1.773" id="Combined-Shape"/></g></g></svg>